<?xml version="1.0" encoding="UTF-8"?>
<svg id="_Слой_1" data-name="Слой 1"
  xmlns="http://www.w3.org/2000/svg" width="616" height="399" viewBox="0 0 586 369">
  <defs>
    <style>
      .cls-1 {
        fill: #403e56;
      }

      .cls-2 {
        fill: #fff;
      }

      .cls-3 {
        fill: #cdcccc;
      }

      .cls-4 {
        fill: #e7e6e6;
      }

      .cls-5 {
        fill: #ec6585;
      }

      .cls-6 {
        fill: #a7b9e0;
      }

      .cls-7 {
        fill: #f2f2f2;
      }
    </style>
  </defs>
  <path class="cls-7" d="M214.45,299.58c78.66,0,142.43-63.7,142.43-142.28S293.11,15.02,214.45,15.02,72.02,78.72,72.02,157.3s63.77,142.28,142.43,142.28Z"/>
  <path class="cls-7" d="M379.63,295.37c14.9,0,26.97-12.06,26.97-26.94s-12.07-26.94-26.97-26.94-26.97,12.06-26.97,26.94,12.07,26.94,26.97,26.94Z"/>
  <path class="cls-7" d="M515.32,355.99c6.05,0,10.96-4.9,10.96-10.95s-4.9-10.95-10.96-10.95-10.96,4.9-10.96,10.95,4.91,10.95,10.96,10.95Z"/>
  <path class="cls-1" d="M328.3,340.84c-68.07,0-127.3-50.73-136.05-119.92l1.67-.21c8.64,68.34,67.15,118.44,134.38,118.45,5.71,0,11.42-.36,17.09-1.08,74.15-9.36,126.86-77.24,117.49-151.31l1.67-.21c9.48,75-43.88,143.72-118.95,153.19-5.74,.73-11.52,1.09-17.3,1.09Z"/>
  <path class="cls-6" d="M331.96,369h-26.8c-.57,0-1.14-.13-1.65-.38s-.97-.61-1.32-1.06c-.35-.44-.6-.95-.73-1.49-.13-.55-.13-1.11,0-1.66,2.54-11.21,2.39-22.87-.44-34.01-.19-.77-.14-1.58,.16-2.32,.3-.74,.82-1.36,1.49-1.79,9.27-5.74,19.37-5.56,30.87,.55,.52,.27,.97,.67,1.32,1.15,.35,.48,.58,1.03,.68,1.61,1.9,11.97,1.97,24.15,.2,36.14-.13,.91-.58,1.74-1.27,2.33-.69,.6-1.58,.93-2.49,.93Z"/>
  <path class="cls-3" d="M209.76,225.88h-26.8c-.57,0-1.14-.13-1.65-.38-.52-.25-.97-.61-1.32-1.06-.35-.44-.6-.95-.73-1.49-.13-.55-.13-1.11,0-1.66,2.55-11.25,2.39-22.95-.47-34.13-.18-.74-.14-1.51,.13-2.22,.26-.71,.73-1.33,1.35-1.77,13.78-9.9,24.64-9.61,32.26,.86,.34,.48,.57,1.03,.67,1.61,2.04,12.23,2.15,24.71,.33,36.98-.13,.91-.58,1.74-1.27,2.33-.69,.6-1.58,.93-2.49,.93Z"/>
  <path class="cls-2" d="M319.44,343.87h-9.22c-.51,0-1-.2-1.36-.56-.36-.36-.56-.85-.56-1.36s.2-1,.56-1.36c.36-.36,.85-.56,1.36-.56h9.22c.51,0,1,.2,1.36,.56,.36,.36,.56,.85,.56,1.36s-.2,1-.56,1.36c-.36,.36-.85,.56-1.36,.56Z"/>
  <path class="cls-2" d="M330.71,351.46h-20.49c-.51,0-1-.2-1.36-.56-.36-.36-.56-.85-.56-1.36s.2-1,.56-1.36c.36-.36,.85-.56,1.36-.56h20.49c.51,0,1,.2,1.36,.56,.36,.36,.56,.85,.56,1.36s-.2,1-.56,1.36c-.36,.36-.85,.56-1.36,.56Z"/>
  <path class="cls-2" d="M201.45,199.06h-9.22c-.51,0-1-.2-1.36-.56-.36-.36-.56-.85-.56-1.36s.2-1,.56-1.36c.36-.36,.85-.56,1.36-.56h9.22c.51,0,1,.2,1.36,.56,.36,.36,.56,.85,.56,1.36s-.2,1-.56,1.36c-.36,.36-.85,.56-1.36,.56Z"/>
  <path class="cls-2" d="M201.45,205.8h-9.22c-.51,0-1-.2-1.36-.56-.36-.36-.56-.85-.56-1.36s.2-1,.56-1.36,.85-.56,1.36-.56h9.22c.51,0,1,.2,1.36,.56,.36,.36,.56,.85,.56,1.36s-.2,1-.56,1.36c-.36,.36-.85,.56-1.36,.56Z"/>
  <path class="cls-2" d="M201.45,212.53h-9.22c-.51,0-1-.2-1.36-.56-.36-.36-.56-.85-.56-1.36s.2-1,.56-1.36c.36-.36,.85-.56,1.36-.56h9.22c.51,0,1,.2,1.36,.56,.36,.36,.56,.85,.56,1.36s-.2,1-.56,1.36c-.36,.36-.85,.56-1.36,.56Z"/>
  <path class="cls-4" d="M570.5,257.51h-85.68c-2.3,0-4.5-.92-6.12-2.54-1.62-1.62-2.54-3.82-2.54-6.12v-52.72c0-2.29,.92-4.49,2.54-6.11,1.62-1.62,3.82-2.53,6.12-2.54h85.68c2.3,0,4.5,.91,6.12,2.54,1.62,1.62,2.54,3.82,2.54,6.11v52.72c0,2.29-.92,4.49-2.54,6.12-1.62,1.62-3.82,2.53-6.12,2.54Z"/>
  <path class="cls-2" d="M536.46,250.72h-45.62c-2.15,0-4.21-.86-5.73-2.38-1.52-1.52-2.38-3.58-2.38-5.73v-40.23c0-2.15,.86-4.21,2.38-5.73,1.52-1.52,3.58-2.37,5.73-2.38h73.64c2.15,0,4.21,.86,5.73,2.38,1.52,1.52,2.38,3.58,2.38,5.73v12.24c-.01,9.57-3.82,18.74-10.59,25.51-6.77,6.77-15.96,10.57-25.54,10.58Z"/>
  <path class="cls-6" d="M557.13,216.31h-58.94c-.51,0-1-.2-1.36-.56-.36-.36-.56-.85-.56-1.36s.2-1,.56-1.36c.36-.36,.85-.56,1.36-.56h58.94c.51,0,1,.2,1.36,.56,.36,.36,.56,.85,.56,1.36s-.2,1-.56,1.36c-.36,.36-.85,.56-1.36,.56Z"/>
  <path class="cls-6" d="M507.41,223.9h-9.22c-.51,0-1-.2-1.36-.56-.36-.36-.56-.85-.56-1.36s.2-1,.56-1.36c.36-.36,.85-.56,1.36-.56h9.22c.51,0,1,.2,1.36,.56,.36,.36,.56,.85,.56,1.36s-.2,1-.56,1.36c-.36,.36-.85,.56-1.36,.56Z"/>
  <path class="cls-6" d="M523.74,231.49h-25.55c-.51,0-1-.2-1.36-.56s-.56-.85-.56-1.36,.2-1,.56-1.36c.36-.36,.85-.56,1.36-.56h25.55c.51,0,1,.2,1.36,.56,.36,.36,.56,.85,.56,1.36s-.2,1-.56,1.36-.85,.56-1.36,.56Z"/>
  <path class="cls-1" d="M473.17,204.54c10.01,0,18.12-8.11,18.12-18.11s-8.12-18.11-18.12-18.11-18.13,8.11-18.13,18.11,8.12,18.11,18.13,18.11Z"/>
  <path class="cls-1" d="M267.99,48.7c1.2-6.08,3.59-11.87,7.03-17.03,3.44-5.16,7.86-9.6,13.02-13.05,10.41-6.98,23.17-9.54,35.47-7.12,6.09,1.2,11.88,3.58,17.05,7.02,5.17,3.44,9.61,7.85,13.07,13,3.46,5.15,5.87,10.93,7.09,17.01,1.22,6.08,1.23,12.34,.03,18.42l-1.65-.33c2.34-11.85-.13-24.14-6.87-34.17-6.73-10.03-17.18-16.97-29.04-19.31-11.86-2.33-24.16,.13-34.2,6.86-10.04,6.73-16.99,17.16-19.33,29.01l-1.65-.33Z"/>
  <path class="cls-6" d="M285.94,78.49l-26.78,1.11c-.57,.02-1.14-.08-1.67-.31-.53-.23-.99-.57-1.37-1-.37-.42-.64-.92-.79-1.46-.15-.54-.17-1.11-.07-1.66,2.06-11.19,1.46-22.71-1.75-33.64-.25-.84-.2-1.73,.14-2.53,.34-.8,.95-1.46,1.72-1.87,10.97-5.69,21.25-5.98,30.55-.86,.49,.26,.91,.63,1.24,1.08,.33,.44,.56,.96,.67,1.5,2.42,11.92,3,24.14,1.72,36.23-.09,.91-.5,1.76-1.17,2.38-.67,.63-1.54,.99-2.45,1.03Z"/>
  <path class="cls-2" d="M284.81,60.98l-20.48,.85c-.25,.01-.5-.03-.74-.12-.24-.09-.46-.22-.64-.39-.19-.17-.34-.38-.44-.61-.11-.23-.17-.48-.18-.73-.01-.25,.03-.5,.12-.74,.09-.24,.22-.45,.39-.64,.17-.19,.38-.34,.61-.44,.23-.11,.48-.17,.73-.18l20.48-.85c.25-.01,.5,.03,.74,.12,.24,.09,.46,.22,.64,.39,.19,.17,.34,.38,.44,.61,.11,.23,.17,.48,.18,.73,.01,.25-.03,.5-.12,.74-.09,.24-.22,.45-.39,.64-.17,.19-.38,.34-.61,.44-.23,.11-.48,.17-.73,.18Z"/>
  <path class="cls-2" d="M284.53,54.26l-20.48,.85c-.51,.02-1.01-.16-1.38-.51s-.6-.82-.62-1.33c-.02-.51,.16-1.01,.51-1.38,.35-.37,.83-.6,1.33-.62l20.48-.85c.51-.02,1.01,.16,1.38,.51,.38,.34,.6,.82,.62,1.33,.02,.51-.16,1.01-.51,1.38-.35,.37-.83,.6-1.33,.62Z"/>
  <path class="cls-4" d="M461.2,70.02h-85.68c-2.3,0-4.5-.91-6.12-2.54-1.62-1.62-2.54-3.82-2.54-6.12V8.65c0-2.29,.92-4.49,2.54-6.12,1.62-1.62,3.82-2.53,6.12-2.54h85.68c2.3,0,4.5,.91,6.12,2.54,1.62,1.62,2.54,3.82,2.54,6.12V61.37c0,2.29-.92,4.49-2.54,6.12-1.62,1.62-3.82,2.53-6.12,2.54Z"/>
  <path class="cls-2" d="M427.16,63.23h-45.62c-2.15,0-4.21-.86-5.73-2.38-1.52-1.52-2.38-3.58-2.38-5.73V14.89c0-2.15,.86-4.21,2.38-5.73,1.52-1.52,3.58-2.37,5.73-2.38h73.63c2.15,0,4.21,.86,5.73,2.38,1.52,1.52,2.38,3.58,2.38,5.73v12.24c-.01,9.57-3.82,18.74-10.59,25.51-6.77,6.77-15.96,10.57-25.54,10.58Z"/>
  <path class="cls-6" d="M447.83,28.82h-58.94c-.51,0-1-.2-1.36-.56-.36-.36-.56-.85-.56-1.36s.2-1,.56-1.36c.36-.36,.85-.56,1.36-.56h58.94c.51,0,1,.2,1.36,.56,.36,.36,.56,.85,.56,1.36s-.2,1-.56,1.36c-.36,.36-.85,.56-1.36,.56Z"/>
  <path class="cls-6" d="M398.11,36.41h-9.22c-.51,0-1-.2-1.36-.56-.36-.36-.56-.85-.56-1.36s.2-1,.56-1.36c.36-.36,.85-.56,1.36-.56h9.22c.51,0,1,.2,1.36,.56,.36,.36,.56,.85,.56,1.36s-.2,1-.56,1.36c-.36,.36-.85,.56-1.36,.56Z"/>
  <path class="cls-6" d="M414.44,44h-25.55c-.51,0-1-.2-1.36-.56-.36-.36-.56-.85-.56-1.36s.2-1,.56-1.36c.36-.36,.85-.56,1.36-.56h25.55c.51,0,1,.2,1.36,.56,.36,.36,.56,.85,.56,1.36s-.2,1-.56,1.36c-.36,.36-.85,.56-1.36,.56Z"/>
  <path class="cls-1" d="M377.05,79.15c5.28-8.49,2.68-19.66-5.82-24.94-8.5-5.28-19.68-2.67-24.96,5.82-5.28,8.49-2.68,19.66,5.82,24.94,8.5,5.28,19.68,2.67,24.96-5.82Z"/>
  <path class="cls-1" d="M120.21,210.84c-7.44-19.64-6.76-41.42,1.88-60.56,8.64-19.14,24.54-34.06,44.2-41.49,19.66-7.43,41.47-6.75,60.62,1.88,19.16,8.63,34.1,24.52,41.54,44.15l-1.58,.6c-3.6-9.52-9.05-18.23-16.02-25.65-6.98-7.42-15.34-13.38-24.63-17.57-9.28-4.18-19.3-6.5-29.48-6.82-10.18-.32-20.32,1.37-29.85,4.97-9.53,3.6-18.25,9.04-25.67,16.01-7.42,6.97-13.4,15.33-17.59,24.6-4.19,9.27-6.51,19.28-6.82,29.45-.32,10.17,1.38,20.3,4.98,29.82l-1.58,.6Z"/>
  <path class="cls-6" d="M189.53,132.43h-26.8c-.57,0-1.14-.13-1.65-.38-.52-.25-.97-.61-1.32-1.06-.35-.44-.6-.95-.73-1.49-.13-.55-.13-1.11,0-1.66,2.54-11.19,2.39-22.81-.42-33.94-.2-.79-.14-1.62,.17-2.37,.31-.75,.86-1.38,1.56-1.79,9.71-5.65,20.08-5.47,30.82,.51,.51,.28,.95,.67,1.28,1.14,.33,.47,.56,1.01,.65,1.58,1.91,11.98,1.98,24.18,.2,36.18-.13,.91-.58,1.74-1.27,2.33-.69,.6-1.58,.93-2.49,.93Z"/>
  <path class="cls-2" d="M177.01,106.45h-9.22c-.51,0-1-.2-1.36-.56-.36-.36-.56-.85-.56-1.36s.2-1,.56-1.36c.36-.36,.85-.56,1.36-.56h9.22c.51,0,1,.2,1.36,.56,.36,.36,.56,.85,.56,1.36s-.2,1-.56,1.36c-.36,.36-.85,.56-1.36,.56Z"/>
  <path class="cls-2" d="M188.28,114.04h-20.49c-.51,0-1-.2-1.36-.56-.36-.36-.56-.85-.56-1.36s.2-1,.56-1.36c.36-.36,.85-.56,1.36-.56h20.49c.51,0,1,.2,1.36,.56,.36,.36,.56,.85,.56,1.36s-.2,1-.56,1.36c-.36,.36-.85,.56-1.36,.56Z"/>
  <path class="cls-4" d="M101.34,209.78H15.66c-2.3,0-4.5-.91-6.12-2.54-1.62-1.62-2.54-3.82-2.54-6.12v-52.72c0-2.29,.92-4.49,2.54-6.12,1.62-1.62,3.83-2.53,6.12-2.54H101.34c2.3,0,4.5,.91,6.12,2.54,1.62,1.62,2.54,3.82,2.54,6.12v52.72c0,2.29-.92,4.49-2.54,6.11-1.62,1.62-3.83,2.53-6.12,2.54Z"/>
  <path class="cls-2" d="M67.3,202.99H21.68c-2.15,0-4.21-.86-5.73-2.38-1.52-1.52-2.38-3.58-2.38-5.73v-40.23c0-2.15,.86-4.21,2.38-5.73,1.52-1.52,3.58-2.37,5.73-2.38H95.32c2.15,0,4.21,.86,5.73,2.38,1.52,1.52,2.38,3.58,2.38,5.73v12.24c-.01,9.57-3.82,18.74-10.59,25.51-6.77,6.77-15.96,10.57-25.54,10.58Z"/>
  <path class="cls-6" d="M87.97,168.58H29.03c-.51,0-1-.2-1.36-.56-.36-.36-.56-.85-.56-1.36s.2-1,.56-1.36c.36-.36,.85-.56,1.36-.56h58.94c.51,0,1,.2,1.36,.56,.36,.36,.56,.85,.56,1.36s-.2,1-.56,1.36c-.36,.36-.85,.56-1.36,.56Z"/>
  <path class="cls-6" d="M38.25,176.17h-9.22c-.51,0-1-.2-1.36-.56-.36-.36-.56-.85-.56-1.36s.2-1,.56-1.36c.36-.36,.85-.56,1.36-.56h9.22c.51,0,1,.2,1.36,.56,.36,.36,.56,.85,.56,1.36s-.2,1-.56,1.36c-.36,.36-.85,.56-1.36,.56Z"/>
  <path class="cls-6" d="M54.58,183.75H29.03c-.51,0-1-.2-1.36-.56-.36-.36-.56-.85-.56-1.36s.2-1,.56-1.36c.36-.36,.85-.56,1.36-.56h25.55c.51,0,1,.2,1.36,.56,.36,.36,.56,.85,.56,1.36s-.2,1-.56,1.36c-.36,.36-.85,.56-1.36,.56Z"/>
  <path class="cls-1" d="M135.17,217.22c5.28-8.49,2.68-19.66-5.82-24.94-8.5-5.28-19.68-2.67-24.96,5.82-5.29,8.49-2.68,19.66,5.82,24.94,8.5,5.28,19.68,2.67,24.96-5.82Z"/>
  <path class="cls-5" d="M281.39,182.94h-26.8c-.57,0-1.14-.13-1.65-.38-.52-.25-.97-.61-1.33-1.06-.35-.44-.6-.95-.73-1.49-.13-.55-.13-1.11,0-1.66,2.53-11.17,2.39-22.77-.4-33.88-.2-.8-.13-1.64,.19-2.39,.32-.76,.88-1.39,1.6-1.8,13.02-7.45,23.33-7.24,31.52,.63,.57,.56,.95,1.29,1.08,2.08,1.99,12.14,2.09,24.51,.29,36.68-.13,.91-.58,1.73-1.27,2.33-.69,.6-1.58,.93-2.49,.93Z"/>
  <path class="cls-2" d="M270.55,157.81h-9.22c-.51,0-1-.2-1.36-.56-.36-.36-.56-.85-.56-1.36s.2-1,.56-1.36c.36-.36,.85-.56,1.36-.56h9.22c.51,0,1,.2,1.36,.56,.36,.36,.56,.85,.56,1.36s-.2,1-.56,1.36c-.36,.36-.85,.56-1.36,.56Z"/>
  <path class="cls-2" d="M281.83,165.4h-20.49c-.51,0-1-.2-1.36-.56-.36-.36-.56-.85-.56-1.36s.2-1,.56-1.36c.36-.36,.85-.56,1.36-.56h20.49c.51,0,1,.2,1.36,.56,.36,.36,.56,.85,.56,1.36s-.2,1-.56,1.36c-.36,.36-.85,.56-1.36,.56Z"/>
</svg>